<svg width="24" height="24" viewBox="0 0 24 24" fill="none" xmlns="http://www.w3.org/2000/svg">
  <path fill-rule="evenodd" clip-rule="evenodd" d="M12 16C14.2091 16 16 14.2091 16 12C16 9.79086 14.2091 8 12 8C9.79086 8 8 9.79086 8 12C8 14.2091 9.79086 16 12 16ZM16.9 11C16.4367 8.71776 14.4344 7 12 7C9.56564 7 7.56329 8.71776 7.10002 11H1.5C1.22386 11 1 11.2239 1 11.5V12.5C1 12.7761 1.22386 13 1.5 13H7.10002C7.56329 15.2822 9.56564 17 12 17C14.4344 17 16.4367 15.2822 16.9 13H22.5C22.7761 13 23 12.7761 23 12.5V11.5C23 11.2239 22.7761 11 22.5 11H16.9Z" fill="#C5C5C5"/>
</svg>
